<svg xmlns="http://www.w3.org/2000/svg" xmlns:xlink="http://www.w3.org/1999/xlink" version="1.1" x="0px" y="0px" viewBox="0 0 100 100" enable-background="new 0 0 100 100" xml:space="preserve"><path d="M93.064,6.949c-1.279-1.276-3.211-1.924-5.736-1.924c-7.066,0-18.278,5.153-22.499,9.372L40.119,39.1l-19.005-0.422  c-0.524-0.01-1.041,0.194-1.417,0.568l-4.509,4.505c-0.364,0.365-0.569,0.86-0.569,1.376s0.205,1.011,0.569,1.375l8.763,8.756  l-5.386,5.385c-0.364,0.364-0.569,0.859-0.569,1.375c0,0.517,0.205,1.012,0.569,1.375l18.036,18.021  c0.76,0.758,1.99,0.759,2.749-0.001l5.387-5.386l8.763,8.758c0.38,0.38,0.877,0.568,1.374,0.568c0.498,0,0.994-0.188,1.374-0.567  l4.512-4.505c0.377-0.375,0.581-0.889,0.569-1.42L60.902,59.87l24.713-24.703c2.662-2.661,5.728-8.158,7.626-13.678  C94.917,16.612,96.248,10.13,93.064,6.949z M89.563,20.226c-1.668,4.854-4.484,9.982-6.695,12.193L57.566,57.71  c-0.375,0.375-0.58,0.888-0.567,1.418l0.425,18.991l-2.549,2.545l-8.763-8.76c-0.38-0.379-0.877-0.568-1.375-0.568  c-0.497,0-0.994,0.189-1.374,0.568l-5.387,5.387L22.69,62.02l5.386-5.388c0.364-0.364,0.569-0.858,0.569-1.374  c0-0.517-0.205-1.011-0.569-1.376l-8.763-8.754l2.545-2.543l19.005,0.421c0.521,0.034,1.044-0.193,1.418-0.568l25.297-25.29  c3.597-3.596,13.82-8.234,19.75-8.234c1.419,0,2.48,0.28,2.988,0.787C91.378,10.76,91.559,14.427,89.563,20.226z"></path><path d="M47.171,50.074L35.72,61.52c-0.759,0.76-0.759,1.99,0,2.75c0.76,0.76,1.99,0.76,2.749,0L49.92,52.823  c0.76-0.761,0.762-1.99,0.001-2.749C49.162,49.314,47.931,49.314,47.171,50.074z"></path><path d="M73.753,21.746c-1.245,1.244-1.243,3.262,0.002,4.506c1.244,1.244,3.265,1.244,4.506,0c1.248-1.244,1.248-3.262,0-4.506  C77.018,20.501,74.997,20.501,73.753,21.746z"></path><path d="M66.207,29.29c-1.245,1.243-1.242,3.262,0,4.504c1.245,1.243,3.266,1.245,4.509,0c1.246-1.243,1.245-3.26-0.002-4.505  C69.473,28.046,67.452,28.046,66.207,29.29z"></path><path d="M58.66,36.833c-1.245,1.244-1.244,3.26-0.001,4.504c1.247,1.245,3.264,1.245,4.511,0.001  c1.245-1.245,1.243-3.261-0.001-4.507C61.922,35.588,59.904,35.588,58.66,36.833z"></path><path d="M23.058,76.934c-0.76-0.761-1.991-0.762-2.75-0.002l-8.659,8.651c-0.759,0.76-0.76,1.991-0.001,2.75  c0.76,0.76,1.991,0.761,2.75,0.001l8.659-8.652C23.815,78.923,23.816,77.691,23.058,76.934z"></path><path d="M26.391,83.004l-8.66,8.652c-0.76,0.759-0.761,1.99-0.002,2.748c0.759,0.761,1.989,0.762,2.749,0.003l8.66-8.653  c0.76-0.758,0.761-1.988,0.002-2.749C28.382,82.246,27.15,82.245,26.391,83.004z"></path><path d="M16.979,70.855c-0.76-0.76-1.99-0.762-2.75-0.002L5.57,79.51c-0.76,0.76-0.761,1.99-0.001,2.749  c0.759,0.761,1.99,0.761,2.749,0.001l8.659-8.654C17.737,72.846,17.738,71.614,16.979,70.855z"></path></svg>